<?xml version="1.0" standalone="no"?>
<!DOCTYPE svg PUBLIC "-//W3C//DTD SVG 20010904//EN"
 "http://www.w3.org/TR/2001/REC-SVG-20010904/DTD/svg10.dtd">
<svg version="1.0" xmlns="http://www.w3.org/2000/svg"
 width="48.000000pt" height="48.000000pt" viewBox="0 0 48.000000 48.000000"
 preserveAspectRatio="xMidYMid meet">

<g transform="translate(0.000000,48.000000) scale(0.100000,-0.100000)"
fill="#000000" stroke="none">
<path d="M258 424 c-36 -19 -58 -63 -58 -113 0 -66 -5 -72 -64 -65 -78 9 -103
-19 -123 -143 -7 -43 27 -78 65 -68 15 4 62 10 104 13 49 5 83 13 91 22 22 23
28 63 13 92 -8 14 -17 57 -21 95 -7 75 5 103 45 103 38 0 50 -27 50 -108 0
-96 -7 -122 -31 -122 -15 0 -19 -7 -19 -40 l0 -40 80 0 80 0 0 40 c0 33 -4 40
-19 40 -25 0 -31 26 -31 133 0 100 -14 138 -60 162 -36 19 -67 19 -102 -1z
m113 -33 c28 -28 41 -81 19 -81 -5 0 -10 10 -10 22 0 30 -38 68 -69 68 -43 0
-71 -36 -71 -92 0 -26 -4 -48 -10 -48 -5 0 -10 23 -10 51 0 43 5 55 29 80 20
20 39 29 61 29 22 0 41 -9 61 -29z m29 -166 c0 -37 -4 -65 -10 -65 -6 0 -10
28 -10 65 0 37 4 65 10 65 6 0 10 -28 10 -65z m-150 0 c0 -17 -2 -18 -24 -9
-23 9 -20 24 4 24 11 0 20 -7 20 -15z m-32 -27 c36 -19 48 -30 50 -52 5 -43
-13 -56 -77 -56 -56 0 -57 1 -66 33 -8 24 -18 34 -42 42 -37 10 -40 20 -16 48
23 25 85 19 151 -15z m-118 -63 c26 -32 -13 -81 -47 -59 -10 6 -19 19 -21 28
-8 38 43 61 68 31z m310 -10 c0 -8 9 -15 20 -15 11 0 20 -4 20 -10 0 -6 -27
-10 -60 -10 -33 0 -60 4 -60 10 0 6 9 10 20 10 11 0 20 7 20 15 0 8 9 15 20
15 11 0 20 -7 20 -15z"/>
<path d="M54 119 c-10 -17 13 -36 27 -22 12 12 4 33 -11 33 -5 0 -12 -5 -16
-11z"/>
</g>
</svg>
