<?xml version="1.0" encoding="UTF-8"?>
<svg id="Calque_1" data-name="Calque 1" xmlns="http://www.w3.org/2000/svg" version="1.1" viewBox="0 0 2000 2000">
  <defs>
    <style>
      .cls-1 {
        fill: #000;
        stroke-width: 0px;
      }
    </style>
  </defs>
  <path class="cls-1" d="M324.5,1628.6c0,.2,0,.4-.1.6h0c0-.2,0-.4.1-.6Z"/>
  <path class="cls-1" d="M744.8,1157.3h0c-1.5-.2-3-.4-4.4-.7,1.5.2,3,.4,4.4.7Z"/>
  <path class="cls-1" d="M1675.2,620c-12.8,41.1-40.9,74.8-79,94.8-23.5,12.3-49,18.5-74.8,18.5s-32.4-2.4-48.2-7.4c-2.3-.7-4.6-1.5-6.8-2.3h0c-1.4-.5-2.9-1-4.3-1.4-66.5-20.1-136.9,17.7-157,84.1-20.1,66.5,17.7,136.9,84.1,157,1.5.4,3,.9,4.5,1.3h0c79.8,20.1,146.6,69.8,188,139.7,41.3,69.8,52.9,152.2,32.7,232.2h-.4c-20.9,79.3-70.6,145.6-140.1,186.8-47.1,27.9-99.9,42.2-153.7,42.2s-51-3.2-76.4-9.6v.3c-71.3-15.2-143.6-2-203.7,37.2-59.6,38.9-101,99.2-116.5,170.1h0c-19.2,80.2-67.8,147.9-136.8,190.5-48.3,29.8-102.9,45.1-158.7,45.1s-45.6-2.5-68.3-7.6h0c-80.6-17.3-149.3-64.3-193.5-132.3-44.2-68-59-149.6-41.9-229.9,0-.2,0-.4.1-.6,19.3-79.8,68-147,137.2-189.2,69.2-42.2,151.5-54.8,231.7-35.6h0c2.1.5,4.3,1,6.5,1.4,7.9,1.5,15.8,2.2,23.6,2.2,59.3,0,112.2-42.1,123.7-102.4,13-68.2-32-134.3-100.2-147.3-.7-.1-1.4-.3-2.1-.4-1.5-.3-3-.5-4.4-.7,0,0,0,0,0,0-79.7-13.2-149.5-55.2-196.9-118.6-48.4-64.8-68.3-145.3-56-226.7h.1c14.6-79.9,58.3-149.1,123.5-195.1,65.3-46.1,145.5-64.2,225.9-50.9h0c71.9,11.9,143.5-4.6,201.7-46.6,58.1-41.8,96.7-104.5,108.7-176.4h0c11.6-72.1-5-143.9-46.8-202.2-38.6-53.8-95-90.7-160-105.2-9.2-2-15.2-10.8-13.7-20.1h0c1.6-10,11.3-16.7,21.2-14.5,73.6,16.3,137.4,58.1,181.2,119.1,47.2,65.8,66.1,146.8,53,228.2h0c-13.5,81.4-57.2,152.3-123,199.7-52,37.4-113.3,57-176.8,57s-32.8-1.3-49.3-3.9h0c-71.9-12.4-143.6,3.5-201.9,44.6-58.3,41.1-97.2,103.4-109.6,175.3h0c-9.8,70.6,7.9,140.3,49.9,196.5,41.8,56,103.5,93.1,174.1,104.8,0,0,.1,0,.1,0,2.5.4,5.1.8,7.6,1.3,42.3,8.1,79,32.1,103.2,67.7,24.2,35.6,33.1,78.6,25.1,120.9-8.1,42.3-32.1,79-67.7,103.2-27.1,18.4-58.4,28-90.4,28s-20.3-1-30.5-2.9c-2.8-.5-5.6-1.1-8.4-1.8h0c-71-16.9-143.7-5.7-204.8,31.5-61,37.1-103.9,96.3-121.1,166.6,0,0,0,0,0,0-15.3,71.2-2.2,143.4,36.9,203.6,38.4,59.1,97.9,100.3,167.8,116.3h0c70.9,16.9,143.5,5.4,204.5-32.3,60.3-37.3,103-96.3,120.4-166.3h0c17.3-80.6,64.2-149.5,132.1-193.7,67.9-44.3,149.6-59.3,230-42.2v-.3c70.6,18.3,143.4,8.3,205.2-28.3,61.7-36.5,105.8-95.6,124.1-166.3h.4c17.5-70.4,7.2-142.9-29.1-204.2-36.4-61.5-95.1-105.2-165.3-123.2h0c-2.3-.5-4.7-1.2-7-1.9-41.3-12.5-75.2-40.2-95.5-78.2-20.4-38-24.7-81.6-12.2-122.8,12.5-41.2,40.2-75.2,78.2-95.5,38-20.4,81.6-24.7,122.8-12.2,2.3.7,4.6,1.4,6.8,2.2h0c1.5.6,3.1,1.1,4.6,1.6,32.1,10,66.2,6.9,96-8.7,29.8-15.6,51.7-41.9,61.7-74,10-32.1,6.9-66.2-8.7-96-15.6-29.8-41.9-51.7-74-61.7-1.8-.6-3.6-1.1-5.4-1.6l1.2-4.6-1.3,4.6c-79.6-21.7-145.7-72.4-186.1-142.6-37.5-65.1-49.2-140.5-33.6-214.3,2.1-9.9,12.2-16,21.9-13.3h0c9.1,2.5,14.6,11.6,12.6,20.8-13.7,65.2-3.3,131.8,29.7,189.2,35.7,62.1,94.2,106.8,164.5,126.1h0c2.3.6,4.7,1.2,6.9,2,41.1,12.8,74.8,40.9,94.8,79,20,38.2,24,81.8,11.2,122.9Z"/>
</svg>