<?xml version="1.0" encoding="UTF-8"?>
<svg id="Calque_1" data-name="Calque 1" xmlns="http://www.w3.org/2000/svg" version="1.1" viewBox="0 0 2000 2000">
  <defs>
    <style>
      .cls-1 {
        fill: #000;
      }

      .cls-1, .cls-2 {
        stroke-width: 0px;
      }

      .cls-2 {
        fill: #2980ff;
      }
    </style>
  </defs>
  <path class="cls-1" d="M635.2,685.7l14.8,4.5c-4.8-1.9-9.8-3.4-14.8-4.5ZM692.4,899.6c6.6,2.8,13.4,5,20.4,6.4-6.6-2.6-13.4-4.8-20.4-6.4Z"/>
  <g>
    <path class="cls-1" d="M692.4,899.6h-.4.4Z"/>
    <path class="cls-1" d="M715.8,872.4c-2.2-.6-4.4-1.3-6.5-2.1,2.2.6,4.4,1.3,6.5,2.1Z"/>
  </g>
  <g>
    <path class="cls-1" d="M651.6,690.7h0c-.5,0-1-.3-1.5-.5l1.5.5Z"/>
    <path class="cls-1" d="M492.9,477.2c0,.3-.2.5-.3.8h0c0-.3.2-.5.3-.8Z"/>
  </g>
  <g>
    <path class="cls-2" d="M660,344.8c-1,1.1-2,2.3-3.1,3.4,1-1.2,2-2.3,3-3.5h0Z"/>
    <g>
      <path class="cls-2" d="M1346.2,1384.3s0,0,0,0h0s0,0,0,0Z"/>
      <path class="cls-2" d="M1729.4,1035.9h0c-97.2-102.6-226.9-161.1-365.3-164.7-138.4-3.7-271,47.8-373.5,145h0c-98,90.6-224,138.1-355,133.6-131.5-4.5-254-60.8-344.8-158.7h-.1c-40.9-45.6-62.3-103.5-60.4-163.7,2-61,27.7-118.1,72.5-161.3h0c47.2-42.5,107.3-64.1,169.3-60.8,61.8,3.2,119.1,30.8,161.5,77.7.2.2.3.3.5.5,47.5,52.4,112.1,83.1,181.8,86.5,4.3.2,8.5.3,12.7.3,65.3,0,127.9-24.2,177.5-69h0c52.1-47.9,82.8-112.4,86.2-181.9,3.5-70-20.9-137.4-68.7-190h0c-47.8-52.4-112.4-83-181.9-86.2-69.6-3.2-136.8,21.3-189.4,69.2h0c-1.4,1.2-2.7,2.4-4.1,3.6-4.7,4.3-9.1,8.9-13.1,13.6-41.8,45.1-98,71.6-158.6,74.9-62.3,3.4-122.7-18-170.2-60.3h0c-46.8-42.4-74.4-99.8-78-161.7-3.3-57.9,15-114.1,51.6-159.6,4.7-5.9,4-14.4-1.6-19.4h0c-6.1-5.5-15.5-4.7-20.6,1.7-41,51-61.4,113.9-57.7,179,4,69.8,35.3,134.5,88.2,182h0c49.3,43.6,111.1,67.1,175.5,67.1s9.6-.1,14.4-.4c46-2.5,89.7-16.9,127.6-41.6-8.3,41.7,2.6,86.7,33.4,120.5,27.3,30,64.8,45.2,102.5,45.2s66.5-11.8,92.9-35.8h0c1.5-1.3,2.9-2.7,4.3-4.1,26.2-26.1,40.7-60.9,40.7-97.9,0-37-14.3-71.8-40.4-98.1-21.5-21.6-48.9-35.2-78.6-39.4,25.5-8,52.4-11.5,79.6-10.2,62,2.9,119.7,30.3,162.5,77.2h0c42.5,46.8,64.2,106.9,61.1,169.2-3.1,62.3-30.7,120.2-77.7,163h0c-47.1,42.1-107,63.7-169,60.7-62.1-3-119.7-30.4-162.1-77.1-.2-.2-.3-.4-.5-.5-47.5-52.5-111.8-83.4-181.1-87-68.7-3.6-135.3,19.9-187.8,66.3h0c-51.8,48.5-81.6,113.6-83.9,183.3-2.2,69.6,23.3,136.5,71.9,188.4l.2-.2c95.6,100.8,223.4,158.8,360.6,163.5,6,.2,11.9.3,17.9.3,61.6,0,122.1-10.8,180.2-32.3,65.8-24.3,125.7-61.3,178.1-109.9h0c96.9-91.7,222.1-140.2,352.7-136.8,130.4,3.5,252.8,58.6,344.8,155.2h0c43.2,46.5,65.8,106.3,63.5,168.3-2.3,62-29.1,120-75.6,163.2h0c-47,40.9-106.2,61.4-167.1,58-61.7-3.5-118.9-31.3-161.2-78.4h0c-42.8-49.6-101.6-79.7-165.3-84.8-64.1-5.1-126.5,15.6-176,58.3h0c-47.5,43.7-75.5,102.4-78.9,165.6-3.3,63.3,18.4,124.8,61.2,173.1h-.1c39.1,43.5,58.8,99.1,55.6,156.6-3,53-25.2,102.4-62.9,140.5-5.3,5.4-5.5,13.9-.5,19.5h0c5.5,6.1,14.9,6.3,20.6.5,42.6-43,67.7-98.9,71.1-159,3.6-64.4-18.2-126.6-61.4-175.5h.1c-38.7-43.1-58.4-97.8-55.4-154.3,3-56.5,28.3-108.9,71.3-147.6h0c43.3-36.4,97.4-54,152.9-49.6,56.2,4.5,108,31,145.9,74.8,0,0,0,0,0,.1,0,0,0,0,0,.1,47.3,52.9,111.6,84.2,181,88.2,5,.3,9.9.4,14.9.4,64.2,0,126-23.7,175.2-67.7h0c50.9-48.3,80.2-112.5,82.7-181.2,2.5-69.4-22.5-136.2-70.6-188.2ZM819.4,341.2c20.8,20.8,32.2,48.5,32.2,78,0,29.4-11.5,57.1-32.4,77.9-1,1-2,2-3.1,3h0c-44.9,40.8-114.7,37.6-155.6-7.3-37.4-41.1-37.9-102.9-3.4-144.5,1-1.2,2-2.3,3-3.5,0,0,0-.1.2-.2h0c1.1-1.2,2.3-2.4,3.4-3.6,20.8-20.7,48.4-32.2,77.8-32.2h.2c29.4,0,57.1,11.5,77.9,32.4Z"/>
    </g>
  </g>
</svg>